<svg width="1100" height="1079" viewBox="0 0 1100 1079" fill="none" xmlns="http://www.w3.org/2000/svg">
<g clip-path="url(#clip0_183_2891)">
<mask id="mask0_183_2891" style="mask-type:alpha" maskUnits="userSpaceOnUse" x="-224" y="-450" width="1549" height="1736">
<rect x="406.961" y="-449.602" width="1021.41" height="1431.16" transform="rotate(26.1152 406.961 -449.602)" fill="url(#paint0_linear_183_2891)"/>
</mask>
<g mask="url(#mask0_183_2891)">
<path d="M898.821 565.31C763.993 840.344 452.695 964.319 203.576 842.195C177.448 829.386 152.95 814.334 130.295 797.409C362.545 861.396 624.542 736.268 745.255 490.029C865.967 243.789 804.356 -39.8475 611.577 -184.351C638.832 -176.81 665.735 -166.664 691.863 -153.855C940.982 -31.7312 1033.65 290.277 898.821 565.31Z" fill="url(#paint1_linear_183_2891)"/>
<g filter="url(#filter0_f_183_2891)">
<path d="M881.758 556.946C746.931 831.979 452.695 964.319 203.576 842.195C177.448 829.386 152.95 814.334 130.295 797.409C362.545 861.396 641.605 744.633 762.318 498.393C883.03 252.153 804.356 -39.8475 611.577 -184.351C638.832 -176.81 665.735 -166.664 691.863 -153.855C940.982 -31.7312 1016.59 281.912 881.758 556.946Z" fill="url(#paint2_linear_183_2891)"/>
</g>
<g filter="url(#filter1_f_183_2891)">
<path d="M873.227 552.763C738.399 827.797 431.45 964.485 182.331 842.361C156.203 829.553 131.704 814.501 109.05 797.575C341.3 861.563 650.137 748.815 770.849 502.575C891.562 256.335 781.438 -49.7601 588.659 -194.264C615.914 -186.723 642.817 -176.576 668.945 -163.768C918.064 -41.6437 1008.05 277.73 873.227 552.763Z" fill="url(#paint3_linear_183_2891)"/>
</g>
<g filter="url(#filter2_f_183_2891)">
<path d="M873.227 552.763C738.399 827.797 431.45 964.485 182.331 842.361C156.203 829.553 131.704 814.501 109.05 797.575C341.3 861.563 650.137 748.815 770.849 502.575C891.562 256.335 781.438 -49.7601 588.659 -194.264C615.914 -186.723 642.817 -176.576 668.945 -163.768C918.064 -41.6437 1008.05 277.73 873.227 552.763Z" fill="url(#paint4_linear_183_2891)"/>
</g>
<g filter="url(#filter3_f_183_2891)">
<path d="M873.227 552.763C738.399 827.797 431.45 964.485 182.331 842.361C156.203 829.553 131.704 814.501 109.05 797.575C341.3 861.563 650.137 748.815 770.849 502.575C891.562 256.335 781.438 -49.7601 588.659 -194.264C615.914 -186.723 642.817 -176.576 668.945 -163.768C918.064 -41.6437 1008.05 277.73 873.227 552.763Z" fill="url(#paint5_linear_183_2891)"/>
</g>
<g filter="url(#filter4_f_183_2891)">
<path d="M817.678 547.356C682.85 822.39 431.45 964.485 182.331 842.361C156.203 829.553 131.704 814.501 109.05 797.575C341.3 861.563 674.455 769.362 798.576 516.168C954.096 198.926 781.438 -49.7601 588.659 -194.264C615.914 -186.723 642.817 -176.576 668.945 -163.768C918.064 -41.6438 952.505 272.323 817.678 547.356Z" fill="url(#paint6_linear_183_2891)"/>
</g>
<g filter="url(#filter5_f_183_2891)">
<path d="M817.678 547.357C682.85 822.39 442.761 1018.31 193.642 896.186C167.515 883.377 110.878 780.086 88.2239 763.16C320.474 827.148 674.455 769.362 798.577 516.168C954.096 198.926 742.889 -34.5316 550.11 -179.035C537.929 -154.187 629.352 -234.102 655.48 -221.293C904.599 -99.1693 952.506 272.323 817.678 547.357Z" fill="url(#paint7_linear_183_2891)"/>
</g>
<g filter="url(#filter6_f_183_2891)">
<path d="M817.678 547.357C682.85 822.39 442.761 1018.31 193.642 896.186C167.515 883.377 110.878 780.086 88.2239 763.16C320.474 827.148 674.455 769.362 798.577 516.168C954.096 198.926 742.889 -34.5316 550.11 -179.035C537.929 -154.187 629.352 -234.102 655.48 -221.293C904.599 -99.1693 952.506 272.323 817.678 547.357Z" fill="url(#paint8_linear_183_2891)"/>
</g>
<g filter="url(#filter7_f_183_2891)">
<path d="M817.678 547.357C682.85 822.39 442.761 1018.31 193.642 896.186C167.515 883.377 110.878 780.086 88.2239 763.16C320.474 827.148 674.455 769.362 798.577 516.168C954.096 198.926 742.889 -34.5316 550.11 -179.035C537.929 -154.187 629.352 -234.102 655.48 -221.293C904.599 -99.1693 952.506 272.323 817.678 547.357Z" fill="url(#paint9_linear_183_2891)"/>
</g>
</g>
<g filter="url(#filter8_f_183_2891)">
<mask id="mask1_183_2891" style="mask-type:alpha" maskUnits="userSpaceOnUse" x="233" y="489" width="692" height="507">
<path opacity="0.8" d="M233.966 774.819L382.143 995.171L682.947 902.706L924.817 489.152L692.003 518.319L631.193 511.881L266.628 718.974L233.966 774.819Z" fill="url(#paint10_linear_183_2891)"/>
</mask>
<g mask="url(#mask1_183_2891)">
<g opacity="0.8">
<path d="M887.843 465.04C879.511 522.263 921.756 484.578 889.411 539.881C874.506 565.366 682.443 712.462 664.173 733.908C567.815 814.066 450.688 838.61 354.413 797.58C334.843 789.288 317.125 778.236 299.986 765.65C386.736 829.495 521.48 761.635 605.718 680.303C725.02 565.267 787.672 386.741 720.341 221.69C815.843 292.331 827.134 514.301 834.729 478.33L887.843 465.04Z" fill="#D1FAFA"/>
<g filter="url(#filter9_f_183_2891)">
<path d="M863.751 452.977C855.419 510.201 897.664 472.516 865.319 527.819C850.414 553.304 658.351 700.399 640.081 721.846C543.723 802.004 426.597 826.547 330.321 785.518C310.751 777.226 293.033 766.174 275.895 753.587C362.644 817.432 547.899 747.718 632.137 666.386C751.439 551.35 846.795 412.207 779.464 247.156C874.967 317.797 803.043 502.238 810.637 466.268L863.751 452.977Z" fill="#D1FAFA"/>
</g>
<g filter="url(#filter10_f_183_2891)">
<path d="M863.751 452.977C855.419 510.201 897.664 472.516 865.319 527.819C850.414 553.304 658.351 700.399 640.081 721.846C543.723 802.004 426.597 826.547 330.321 785.518C310.751 777.226 293.033 766.174 275.895 753.587C362.644 817.432 547.899 747.718 632.137 666.386C751.439 551.35 846.795 412.207 779.464 247.156C874.967 317.797 803.043 502.238 810.637 466.268L863.751 452.977Z" fill="#D1FAFA"/>
</g>
<g filter="url(#filter11_f_183_2891)">
<path d="M863.751 452.977C855.419 510.201 897.664 472.516 865.319 527.819C850.414 553.304 658.351 700.399 640.081 721.846C543.723 802.004 426.597 826.547 330.321 785.518C310.751 777.226 293.033 766.174 275.895 753.587C362.644 817.432 547.899 747.718 632.137 666.386C751.439 551.35 846.795 412.207 779.464 247.156C874.967 317.797 803.043 502.238 810.637 466.268L863.751 452.977Z" fill="#D1FAFA"/>
</g>
<g filter="url(#filter12_f_183_2891)">
<path d="M863.751 452.977C855.419 510.201 897.664 472.516 865.319 527.819C850.414 553.304 658.351 700.399 640.081 721.846C543.723 802.004 426.597 826.547 330.321 785.518C310.751 777.226 293.033 766.174 275.895 753.587C362.644 817.432 544.467 774.062 628.705 692.729C748.007 577.693 846.795 412.207 779.464 247.156C874.967 317.797 803.043 502.238 810.637 466.268L863.751 452.977Z" fill="#D1FAFA"/>
</g>
<g filter="url(#filter13_f_183_2891)">
<path d="M863.75 452.977C855.419 510.201 897.663 472.516 865.319 527.819C850.414 553.304 658.351 700.399 640.08 721.845C543.722 802.003 426.596 826.547 330.321 785.517C310.75 777.225 284.81 767.619 267.672 755.032C354.421 818.878 540.766 778.987 625.004 697.654C744.306 582.619 846.795 412.207 779.464 247.156C874.966 317.797 803.042 502.238 810.637 466.268L863.75 452.977Z" fill="#D1FAFA"/>
</g>
<g filter="url(#filter14_f_183_2891)">
<path d="M887.843 465.04C879.511 522.263 921.756 484.578 889.411 539.881C874.506 565.366 678.645 702.138 660.374 723.585C564.017 803.742 450.688 838.61 354.413 797.58C334.843 789.288 317.125 778.236 299.986 765.65C386.736 829.495 527.588 765.208 611.826 683.875C731.128 568.839 826.761 409.602 759.43 244.552C854.932 315.192 827.134 514.301 834.729 478.33L887.843 465.04Z" fill="#D1FAFA"/>
</g>
<g filter="url(#filter15_f_183_2891)">
<path d="M875.423 463.855C867.091 521.078 909.336 483.393 876.991 538.696C862.086 564.181 666.225 700.953 647.954 722.399C551.597 802.557 438.268 837.425 341.993 796.395C322.423 788.103 304.705 777.051 287.567 764.465C374.316 828.31 523.718 769.023 607.956 687.691C727.258 572.655 822.891 413.418 755.56 248.368C851.063 319.008 814.715 513.116 822.309 477.145L875.423 463.855Z" fill="#D1FAFA"/>
</g>
<g filter="url(#filter16_f_183_2891)">
<path d="M869.858 456.549C861.526 513.773 903.771 476.088 871.426 531.391C856.521 556.876 660.66 693.647 642.389 715.094C546.032 795.252 432.703 830.119 336.428 789.089C316.858 780.798 299.14 769.745 282.002 757.159C368.751 821.004 541.024 773.068 625.262 691.736C744.564 576.7 840.197 417.463 772.866 252.412C868.368 323.053 809.15 505.81 816.744 469.84L869.858 456.549Z" fill="#D1FAFA"/>
</g>
<g filter="url(#filter17_f_183_2891)">
<path d="M869.858 456.548C861.526 513.772 903.771 476.087 871.426 531.39C856.521 556.875 672.832 680.327 654.561 701.774C558.203 781.932 413.927 828.331 317.652 787.301C298.081 779.009 299.14 769.744 282.002 757.158C368.751 821.003 512.656 817.237 596.894 735.905C716.196 620.869 857.586 545.117 790.255 380.066C885.757 450.707 809.15 505.809 816.744 469.839L869.858 456.548Z" fill="#D1FAFA"/>
</g>
<g filter="url(#filter18_f_183_2891)">
<path d="M869.858 456.548C861.526 513.772 903.771 476.087 871.426 531.39C856.521 556.875 645.102 695.506 626.831 716.953C530.473 797.111 413.927 828.331 317.652 787.301C298.081 779.009 299.14 769.744 282.002 757.158C368.751 821.003 507.877 793.173 592.115 711.841C711.417 596.805 857.586 545.117 790.255 380.066C885.757 450.707 809.15 505.809 816.744 469.839L869.858 456.548Z" fill="#D1FAFA"/>
</g>
</g>
</g>
</g>
</g>
<defs>
<filter id="filter0_f_183_2891" x="115.771" y="-198.875" width="846.57" height="1101.23" filterUnits="userSpaceOnUse" color-interpolation-filters="sRGB">
<feFlood flood-opacity="0" result="BackgroundImageFix"/>
<feBlend mode="normal" in="SourceGraphic" in2="BackgroundImageFix" result="shape"/>
<feGaussianBlur stdDeviation="7.26216" result="effect1_foregroundBlur_183_2891"/>
</filter>
<filter id="filter1_f_183_2891" x="65.4771" y="-237.837" width="913.866" height="1168.72" filterUnits="userSpaceOnUse" color-interpolation-filters="sRGB">
<feFlood flood-opacity="0" result="BackgroundImageFix"/>
<feBlend mode="normal" in="SourceGraphic" in2="BackgroundImageFix" result="shape"/>
<feGaussianBlur stdDeviation="21.7865" result="effect1_foregroundBlur_183_2891"/>
</filter>
<filter id="filter2_f_183_2891" x="46.1114" y="-257.202" width="952.597" height="1207.45" filterUnits="userSpaceOnUse" color-interpolation-filters="sRGB">
<feFlood flood-opacity="0" result="BackgroundImageFix"/>
<feBlend mode="normal" in="SourceGraphic" in2="BackgroundImageFix" result="shape"/>
<feGaussianBlur stdDeviation="31.4693" result="effect1_foregroundBlur_183_2891"/>
</filter>
<filter id="filter3_f_183_2891" x="46.1114" y="-257.202" width="952.597" height="1207.45" filterUnits="userSpaceOnUse" color-interpolation-filters="sRGB">
<feFlood flood-opacity="0" result="BackgroundImageFix"/>
<feBlend mode="normal" in="SourceGraphic" in2="BackgroundImageFix" result="shape"/>
<feGaussianBlur stdDeviation="31.4693" result="effect1_foregroundBlur_183_2891"/>
</filter>
<filter id="filter4_f_183_2891" x="-41.0345" y="-344.348" width="1086.68" height="1380.91" filterUnits="userSpaceOnUse" color-interpolation-filters="sRGB">
<feFlood flood-opacity="0" result="BackgroundImageFix"/>
<feBlend mode="normal" in="SourceGraphic" in2="BackgroundImageFix" result="shape"/>
<feGaussianBlur stdDeviation="75.0423" result="effect1_foregroundBlur_183_2891"/>
</filter>
<filter id="filter5_f_183_2891" x="-3.76344" y="-314.681" width="987.137" height="1339.93" filterUnits="userSpaceOnUse" color-interpolation-filters="sRGB">
<feFlood flood-opacity="0" result="BackgroundImageFix"/>
<feBlend mode="normal" in="SourceGraphic" in2="BackgroundImageFix" result="shape"/>
<feGaussianBlur stdDeviation="45.9937" result="effect1_foregroundBlur_183_2891"/>
</filter>
<filter id="filter6_f_183_2891" x="-110.275" y="-421.193" width="1200.16" height="1552.95" filterUnits="userSpaceOnUse" color-interpolation-filters="sRGB">
<feFlood flood-opacity="0" result="BackgroundImageFix"/>
<feBlend mode="normal" in="SourceGraphic" in2="BackgroundImageFix" result="shape"/>
<feGaussianBlur stdDeviation="99.2495" result="effect1_foregroundBlur_183_2891"/>
</filter>
<filter id="filter7_f_183_2891" x="-207.104" y="-518.022" width="1393.82" height="1746.61" filterUnits="userSpaceOnUse" color-interpolation-filters="sRGB">
<feFlood flood-opacity="0" result="BackgroundImageFix"/>
<feBlend mode="normal" in="SourceGraphic" in2="BackgroundImageFix" result="shape"/>
<feGaussianBlur stdDeviation="147.664" result="effect1_foregroundBlur_183_2891"/>
</filter>
<filter id="filter8_f_183_2891" x="261.723" y="483.203" width="646.012" height="339.896" filterUnits="userSpaceOnUse" color-interpolation-filters="sRGB">
<feFlood flood-opacity="0" result="BackgroundImageFix"/>
<feBlend mode="normal" in="SourceGraphic" in2="BackgroundImageFix" result="shape"/>
<feGaussianBlur stdDeviation="2.97408" result="effect1_foregroundBlur_183_2891"/>
</filter>
<filter id="filter9_f_183_2891" x="269.947" y="241.208" width="613.697" height="569.828" filterUnits="userSpaceOnUse" color-interpolation-filters="sRGB">
<feFlood flood-opacity="0" result="BackgroundImageFix"/>
<feBlend mode="normal" in="SourceGraphic" in2="BackgroundImageFix" result="shape"/>
<feGaussianBlur stdDeviation="2.97408" result="effect1_foregroundBlur_183_2891"/>
</filter>
<filter id="filter10_f_183_2891" x="212.844" y="184.106" width="727.902" height="684.033" filterUnits="userSpaceOnUse" color-interpolation-filters="sRGB">
<feFlood flood-opacity="0" result="BackgroundImageFix"/>
<feBlend mode="normal" in="SourceGraphic" in2="BackgroundImageFix" result="shape"/>
<feGaussianBlur stdDeviation="31.5253" result="effect1_foregroundBlur_183_2891"/>
</filter>
<filter id="filter11_f_183_2891" x="241.395" y="212.657" width="670.8" height="626.931" filterUnits="userSpaceOnUse" color-interpolation-filters="sRGB">
<feFlood flood-opacity="0" result="BackgroundImageFix"/>
<feBlend mode="normal" in="SourceGraphic" in2="BackgroundImageFix" result="shape"/>
<feGaussianBlur stdDeviation="17.2497" result="effect1_foregroundBlur_183_2891"/>
</filter>
<filter id="filter12_f_183_2891" x="241.395" y="212.657" width="670.8" height="626.931" filterUnits="userSpaceOnUse" color-interpolation-filters="sRGB">
<feFlood flood-opacity="0" result="BackgroundImageFix"/>
<feBlend mode="normal" in="SourceGraphic" in2="BackgroundImageFix" result="shape"/>
<feGaussianBlur stdDeviation="17.2497" result="effect1_foregroundBlur_183_2891"/>
</filter>
<filter id="filter13_f_183_2891" x="233.172" y="212.657" width="679.022" height="626.93" filterUnits="userSpaceOnUse" color-interpolation-filters="sRGB">
<feFlood flood-opacity="0" result="BackgroundImageFix"/>
<feBlend mode="normal" in="SourceGraphic" in2="BackgroundImageFix" result="shape"/>
<feGaussianBlur stdDeviation="17.2497" result="effect1_foregroundBlur_183_2891"/>
</filter>
<filter id="filter14_f_183_2891" x="284.521" y="229.087" width="632.731" height="601.254" filterUnits="userSpaceOnUse" color-interpolation-filters="sRGB">
<feFlood flood-opacity="0" result="BackgroundImageFix"/>
<feBlend mode="normal" in="SourceGraphic" in2="BackgroundImageFix" result="shape"/>
<feGaussianBlur stdDeviation="7.73261" result="effect1_foregroundBlur_183_2891"/>
</filter>
<filter id="filter15_f_183_2891" x="269.722" y="230.523" width="637.49" height="601.012" filterUnits="userSpaceOnUse" color-interpolation-filters="sRGB">
<feFlood flood-opacity="0" result="BackgroundImageFix"/>
<feBlend mode="normal" in="SourceGraphic" in2="BackgroundImageFix" result="shape"/>
<feGaussianBlur stdDeviation="8.92225" result="effect1_foregroundBlur_183_2891"/>
</filter>
<filter id="filter16_f_183_2891" x="272.485" y="242.895" width="620.835" height="573.007" filterUnits="userSpaceOnUse" color-interpolation-filters="sRGB">
<feFlood flood-opacity="0" result="BackgroundImageFix"/>
<feBlend mode="normal" in="SourceGraphic" in2="BackgroundImageFix" result="shape"/>
<feGaussianBlur stdDeviation="4.75853" result="effect1_foregroundBlur_183_2891"/>
</filter>
<filter id="filter17_f_183_2891" x="253.451" y="351.515" width="658.903" height="479.559" filterUnits="userSpaceOnUse" color-interpolation-filters="sRGB">
<feFlood flood-opacity="0" result="BackgroundImageFix"/>
<feBlend mode="normal" in="SourceGraphic" in2="BackgroundImageFix" result="shape"/>
<feGaussianBlur stdDeviation="14.2756" result="effect1_foregroundBlur_183_2891"/>
</filter>
<filter id="filter18_f_183_2891" x="253.451" y="351.515" width="658.903" height="482.386" filterUnits="userSpaceOnUse" color-interpolation-filters="sRGB">
<feFlood flood-opacity="0" result="BackgroundImageFix"/>
<feBlend mode="normal" in="SourceGraphic" in2="BackgroundImageFix" result="shape"/>
<feGaussianBlur stdDeviation="14.2756" result="effect1_foregroundBlur_183_2891"/>
</filter>
<linearGradient id="paint0_linear_183_2891" x1="917.665" y1="-449.602" x2="917.665" y2="981.557" gradientUnits="userSpaceOnUse">
<stop stop-color="#C4C4C4" stop-opacity="0"/>
<stop offset="0.380208" stop-color="#C4C4C4"/>
<stop offset="0.578125" stop-color="#C4C4C4"/>
<stop offset="1" stop-color="#C4C4C4" stop-opacity="0"/>
</linearGradient>
<linearGradient id="paint1_linear_183_2891" x1="879.022" y1="-62.1053" x2="390.735" y2="933.945" gradientUnits="userSpaceOnUse">
<stop stop-color="#A4F4F4"/>
<stop offset="1" stop-color="#16B6B6"/>
</linearGradient>
<linearGradient id="paint2_linear_183_2891" x1="870.491" y1="-66.2876" x2="382.204" y2="929.762" gradientUnits="userSpaceOnUse">
<stop stop-color="#A4F4F4"/>
<stop offset="1" stop-color="#16B6B6"/>
</linearGradient>
<linearGradient id="paint3_linear_183_2891" x1="854.505" y1="-72.8021" x2="362.558" y2="930.713" gradientUnits="userSpaceOnUse">
<stop stop-color="#A4F4F4"/>
<stop offset="1" stop-color="#16B6B6"/>
</linearGradient>
<linearGradient id="paint4_linear_183_2891" x1="854.505" y1="-72.8021" x2="362.558" y2="930.713" gradientUnits="userSpaceOnUse">
<stop stop-color="#A4F4F4"/>
<stop offset="1" stop-color="#16B6B6"/>
</linearGradient>
<linearGradient id="paint5_linear_183_2891" x1="854.505" y1="-72.8021" x2="362.558" y2="930.713" gradientUnits="userSpaceOnUse">
<stop stop-color="#A4F4F4"/>
<stop offset="1" stop-color="#16B6B6"/>
</linearGradient>
<linearGradient id="paint6_linear_183_2891" x1="831.043" y1="-84.3035" x2="339.097" y2="919.211" gradientUnits="userSpaceOnUse">
<stop stop-color="#A4F4F4"/>
<stop offset="1" stop-color="#16B6B6"/>
</linearGradient>
<linearGradient id="paint7_linear_183_2891" x1="838.64" y1="-131.504" x2="307.484" y2="951.994" gradientUnits="userSpaceOnUse">
<stop stop-color="#A4F4F4"/>
<stop offset="1" stop-color="#16B6B6"/>
</linearGradient>
<linearGradient id="paint8_linear_183_2891" x1="838.64" y1="-131.504" x2="307.484" y2="951.994" gradientUnits="userSpaceOnUse">
<stop stop-color="#A4F4F4"/>
<stop offset="1" stop-color="#16B6B6"/>
</linearGradient>
<linearGradient id="paint9_linear_183_2891" x1="838.64" y1="-131.504" x2="307.484" y2="951.994" gradientUnits="userSpaceOnUse">
<stop stop-color="#A4F4F4"/>
<stop offset="1" stop-color="#16B6B6"/>
</linearGradient>
<linearGradient id="paint10_linear_183_2891" x1="730.142" y1="570.514" x2="272.029" y2="669.616" gradientUnits="userSpaceOnUse">
<stop stop-color="#C4C4C4" stop-opacity="0"/>
<stop offset="0.565737" stop-color="#C4C4C4"/>
<stop offset="1" stop-color="#C4C4C4" stop-opacity="0"/>
</linearGradient>
<clipPath id="clip0_183_2891">
<rect width="1100" height="1079" fill="white"/>
</clipPath>
</defs>
</svg>
