<svg width="392" height="392" viewBox="0 0 392 392" fill="none" xmlns="http://www.w3.org/2000/svg">
<path d="M197.156 38.5628L71.6498 73.7816C25.9133 86.6158 6.40889 118.936 17.7204 163.147L48.7312 284.35C60.0427 328.561 92.3649 346.338 138.101 333.504L263.608 298.285C309.344 285.451 328.729 253.164 317.418 208.953L286.407 87.7497C275.095 43.5391 242.893 25.7285 197.156 38.5628Z" fill="#108989"/>
<g opacity="0.5" filter="url(#filter0_f_119_3080)">
<path d="M188.172 92.773L105.269 116.035C75.0584 124.513 61.9705 145.062 69.0818 172.855L88.5774 249.049C95.6887 276.841 116.835 287.785 147.046 279.308L229.949 256.045C260.16 247.568 273.169 227.041 266.057 199.248L246.562 123.054C239.451 95.2616 218.383 84.2958 188.172 92.773Z" fill="#36A0A0"/>
</g>
<g filter="url(#filter1_b_119_3080)">
<path d="M279.949 102.251H161.335C114.957 102.251 83.7642 134.812 83.7642 183.242V295.015C83.7642 343.309 114.957 375.869 161.335 375.869H279.949C326.327 375.869 357.383 343.309 357.383 295.015V183.242C357.383 134.812 326.327 102.251 279.949 102.251Z" fill="#1FE3E4" fill-opacity="0.5"/>
<path d="M279.949 101.751H161.335C138.025 101.751 118.496 109.936 104.797 124.239C91.0988 138.54 83.2642 158.918 83.2642 183.242V295.015C83.2642 319.271 91.0991 339.615 104.797 353.898C118.496 368.184 138.025 376.369 161.335 376.369H279.949C303.26 376.369 322.754 368.184 336.419 353.898C350.083 339.614 357.883 319.27 357.883 295.015V183.242C357.883 158.919 350.083 138.541 336.419 124.24C322.754 109.937 303.26 101.751 279.949 101.751Z" stroke="url(#paint0_linear_119_3080)" stroke-linecap="round" stroke-linejoin="round"/>
</g>
<g filter="url(#filter2_b_119_3080)">
<path d="M371.898 82.1497C360.795 82.1497 351.795 91.1499 351.795 102.252C351.795 113.355 360.795 122.355 371.898 122.355C383 122.355 392 113.355 392 102.252C392 96.9207 389.882 91.8075 386.112 88.0376C382.342 84.2676 377.229 82.1497 371.898 82.1497Z" fill="#108989"/>
</g>
<g filter="url(#filter3_bd_119_3080)">
<path d="M292.152 214.832L253.054 265.284C251.409 267.477 248.941 268.908 246.219 269.248C243.496 269.587 240.752 268.807 238.617 267.086L201.083 237.655L167.279 281.381C164.831 285.268 160.063 287.015 155.678 285.631C151.293 284.246 148.397 280.081 148.632 275.495C148.612 273.226 149.377 271.019 150.797 269.248L191.219 217.114C192.844 214.939 195.278 213.509 197.972 213.147C200.666 212.785 203.392 213.522 205.535 215.192L243.069 244.743L276.031 202.339C277.616 200.152 280.021 198.701 282.696 198.316C285.371 197.931 288.088 198.646 290.227 200.296C294.645 203.752 295.499 210.094 292.152 214.591V214.832Z" fill="url(#paint1_linear_119_3080)"/>
<path d="M252.895 265.162L252.894 265.164C251.281 267.314 248.863 268.716 246.194 269.049C243.525 269.382 240.836 268.617 238.743 266.93L238.741 266.929L201.207 237.498L201.048 237.374L200.925 237.533L167.12 281.259L167.115 281.266L167.109 281.274C164.71 285.085 160.036 286.797 155.738 285.44C151.44 284.083 148.602 280 148.832 275.505L148.832 275.505L148.832 275.493C148.812 273.27 149.561 271.108 150.953 269.373L150.955 269.371L191.377 217.236L191.377 217.237L191.379 217.234C192.972 215.101 195.358 213.7 197.998 213.345C200.639 212.991 203.311 213.713 205.411 215.349C205.411 215.349 205.411 215.35 205.412 215.35L242.945 244.9L243.103 245.024L243.226 244.865L276.189 202.461L276.189 202.461L276.193 202.456C277.746 200.313 280.103 198.891 282.724 198.514C285.346 198.137 288.008 198.837 290.104 200.454C294.436 203.842 295.273 210.061 291.991 214.472L291.952 214.525V214.591V214.763L252.895 265.162Z" stroke="url(#paint2_linear_119_3080)" stroke-width="0.4"/>
</g>
<defs>
<filter id="filter0_f_119_3080" x="50.187" y="72.9731" width="234.772" height="226.137" filterUnits="userSpaceOnUse" color-interpolation-filters="sRGB">
<feFlood flood-opacity="0" result="BackgroundImageFix"/>
<feBlend mode="normal" in="SourceGraphic" in2="BackgroundImageFix" result="shape"/>
<feGaussianBlur stdDeviation="8.5" result="effect1_foregroundBlur_119_3080"/>
</filter>
<filter id="filter1_b_119_3080" x="58.7642" y="77.251" width="323.619" height="323.618" filterUnits="userSpaceOnUse" color-interpolation-filters="sRGB">
<feFlood flood-opacity="0" result="BackgroundImageFix"/>
<feGaussianBlur in="BackgroundImageFix" stdDeviation="12"/>
<feComposite in2="SourceAlpha" operator="in" result="effect1_backgroundBlur_119_3080"/>
<feBlend mode="normal" in="SourceGraphic" in2="effect1_backgroundBlur_119_3080" result="shape"/>
</filter>
<filter id="filter2_b_119_3080" x="336.795" y="67.1497" width="70.2051" height="70.2051" filterUnits="userSpaceOnUse" color-interpolation-filters="sRGB">
<feFlood flood-opacity="0" result="BackgroundImageFix"/>
<feGaussianBlur in="BackgroundImageFix" stdDeviation="7.5"/>
<feComposite in2="SourceAlpha" operator="in" result="effect1_backgroundBlur_119_3080"/>
<feBlend mode="normal" in="SourceGraphic" in2="effect1_backgroundBlur_119_3080" result="shape"/>
</filter>
<filter id="filter3_bd_119_3080" x="133.619" y="183.214" width="175.575" height="117.887" filterUnits="userSpaceOnUse" color-interpolation-filters="sRGB">
<feFlood flood-opacity="0" result="BackgroundImageFix"/>
<feGaussianBlur in="BackgroundImageFix" stdDeviation="7.5"/>
<feComposite in2="SourceAlpha" operator="in" result="effect1_backgroundBlur_119_3080"/>
<feColorMatrix in="SourceAlpha" type="matrix" values="0 0 0 0 0 0 0 0 0 0 0 0 0 0 0 0 0 0 127 0" result="hardAlpha"/>
<feOffset dx="5" dy="5"/>
<feGaussianBlur stdDeviation="5"/>
<feColorMatrix type="matrix" values="0 0 0 0 0.0862745 0 0 0 0 0.713726 0 0 0 0 0.713726 0 0 0 0.5 0"/>
<feBlend mode="normal" in2="effect1_backgroundBlur_119_3080" result="effect2_dropShadow_119_3080"/>
<feBlend mode="normal" in="SourceGraphic" in2="effect2_dropShadow_119_3080" result="shape"/>
</filter>
<linearGradient id="paint0_linear_119_3080" x1="127.32" y1="134.128" x2="301.859" y2="350.299" gradientUnits="userSpaceOnUse">
<stop stop-color="white" stop-opacity="0.25"/>
<stop offset="1" stop-color="white" stop-opacity="0"/>
</linearGradient>
<linearGradient id="paint1_linear_119_3080" x1="283.873" y1="214.085" x2="122.015" y2="222.826" gradientUnits="userSpaceOnUse">
<stop stop-color="white"/>
<stop offset="1" stop-color="white" stop-opacity="0.2"/>
</linearGradient>
<linearGradient id="paint2_linear_119_3080" x1="171.792" y1="208.453" x2="216.968" y2="301.132" gradientUnits="userSpaceOnUse">
<stop stop-color="white" stop-opacity="0.25"/>
<stop offset="1" stop-color="white" stop-opacity="0"/>
</linearGradient>
</defs>
</svg>
