<svg width="185" height="56" viewBox="0 0 185 56" fill="none" xmlns="http://www.w3.org/2000/svg">
<path d="M11.5815 7.67801L4.6487 7.70485L4.13814 7.87667C3.41261 8.12365 3.00417 8.38136 2.44524 8.93975C1.5961 9.78807 1.20916 10.6632 1.14467 11.8659C1.0748 13.133 1.53161 14.2713 2.45062 15.1411C2.65484 15.3344 3.56847 16.0163 4.48747 16.6498C5.40647 17.2887 10.6518 20.9398 16.1497 24.7626C21.6475 28.5854 26.1781 31.7317 26.2157 31.7532C26.2641 31.7854 26.2802 31.4579 26.2802 30.18V28.5693L21.5401 25.2726C18.9282 23.4579 14.0268 20.0485 10.641 17.6968C7.25522 15.3451 4.39073 13.3317 4.27787 13.2189C3.44486 12.4297 3.72969 10.9532 4.80992 10.4592L5.07864 10.3357L16.0852 10.3196L27.0863 10.3089V28.027C27.0863 42.4646 27.0756 45.7559 27.0165 45.7773C26.9788 45.7881 22.0399 45.7827 16.0422 45.7612L5.13238 45.7183L4.84754 45.5894C4.48209 45.423 4.07365 44.9827 3.94467 44.6069C3.72969 43.9841 3.8748 43.2861 4.30474 42.8673C4.42298 42.7545 8.55042 39.8552 13.4733 36.4297C18.3961 33.0042 22.4268 30.1747 22.4322 30.1478C22.4376 30.0673 20.2449 28.5585 20.1535 28.58C20.1105 28.5908 16.1927 31.3022 11.4472 34.5988C5.78804 38.5344 2.70321 40.7143 2.47749 40.929C1.56923 41.8096 1.13392 42.9371 1.19841 44.2096C1.23603 44.9451 1.32739 45.2995 1.66597 45.9921C2.10666 46.8995 2.96117 47.6995 3.88555 48.07C4.71856 48.4028 3.91779 48.3814 17.3911 48.419C24.1466 48.4404 29.6875 48.4458 29.6982 48.4351C29.709 48.4243 29.7197 39.2324 29.7197 28.0163V7.62432L24.1197 7.63506C21.0349 7.64579 15.3973 7.6619 11.5815 7.67801Z" fill="#222222"/>
<path d="M40.3878 14.47L30.5528 21.3156L30.526 22.9264C30.5099 23.8123 30.5152 24.5371 30.5367 24.5371C30.5797 24.5371 54.6457 7.80691 54.764 7.69952C54.8285 7.63509 54.506 7.62436 52.5337 7.62436L50.2227 7.62972L40.3878 14.47Z" fill="#222222"/>
<path d="M25.1139 25.09C24.512 25.5142 24.0014 25.8793 23.9692 25.9115C23.9315 25.9491 24.2648 26.2122 25.0118 26.7276C25.6137 27.1464 26.1457 27.5062 26.1941 27.5223C26.2694 27.5545 26.2801 27.3988 26.2801 25.9384C26.2801 25.0471 26.264 24.3223 26.2425 24.3276C26.2156 24.3276 25.7104 24.6713 25.1139 25.09Z" fill="#222222"/>
<path d="M30.5259 33.1438V34.7653L34.519 37.5357C36.7117 39.0606 41.1508 42.1478 44.3861 44.3975L50.2602 48.4834H52.5389C53.7911 48.4834 54.8176 48.4673 54.8176 48.4404C54.8123 48.419 54.4952 48.1827 54.1028 47.9143C53.7105 47.6458 48.2503 43.8498 41.9623 39.474L30.5259 31.5223V33.1438Z" fill="#222222"/>
<path d="M76.368 19.648V37H74.016V19.648H76.368ZM80.832 29.344H75.72V27.304H80.64C81.616 27.304 82.368 27.056 82.896 26.56C83.424 26.064 83.688 25.36 83.688 24.448C83.688 23.584 83.408 22.92 82.848 22.456C82.304 21.976 81.52 21.736 80.496 21.736H75.312V19.648H80.64C82.336 19.648 83.664 20.056 84.624 20.872C85.6 21.688 86.088 22.808 86.088 24.232C86.088 25.304 85.824 26.2 85.296 26.92C84.784 27.624 84.024 28.136 83.016 28.456V28.144C84.136 28.416 84.976 28.912 85.536 29.632C86.112 30.336 86.4 31.248 86.4 32.368C86.4 33.328 86.176 34.16 85.728 34.864C85.296 35.552 84.664 36.08 83.832 36.448C83 36.816 82.016 37 80.88 37H75.312V34.912H80.832C81.84 34.912 82.616 34.664 83.16 34.168C83.704 33.672 83.976 32.976 83.976 32.08C83.976 31.216 83.696 30.544 83.136 30.064C82.592 29.584 81.824 29.344 80.832 29.344ZM102.232 19.648L91.2161 33.616V30.088L99.4241 19.648H102.232ZM91.6961 19.648V37H89.3441V19.648H91.6961ZM94.7441 28.816L96.2801 26.8L102.328 37H99.5921L94.7441 28.816ZM117.065 37H111.329V19.648H116.969C118.697 19.648 120.209 20.016 121.505 20.752C122.817 21.472 123.833 22.488 124.553 23.8C125.289 25.096 125.657 26.608 125.657 28.336C125.657 30.048 125.297 31.56 124.577 32.872C123.857 34.168 122.849 35.184 121.553 35.92C120.273 36.64 118.777 37 117.065 37ZM113.681 20.752V35.92L112.577 34.816H116.897C118.193 34.816 119.305 34.552 120.233 34.024C121.177 33.496 121.905 32.752 122.417 31.792C122.945 30.816 123.209 29.664 123.209 28.336C123.209 26.992 122.945 25.832 122.417 24.856C121.905 23.88 121.169 23.128 120.209 22.6C119.265 22.072 118.129 21.808 116.801 21.808H112.577L113.681 20.752ZM133.329 37.288C132.193 37.288 131.185 37.032 130.305 36.52C129.425 35.992 128.737 35.272 128.241 34.36C127.745 33.432 127.497 32.36 127.497 31.144C127.497 29.912 127.737 28.832 128.217 27.904C128.713 26.976 129.385 26.248 130.233 25.72C131.097 25.192 132.097 24.928 133.233 24.928C134.353 24.928 135.321 25.168 136.137 25.648C136.969 26.128 137.609 26.8 138.057 27.664C138.521 28.528 138.753 29.544 138.753 30.712V31.552L128.697 31.576L128.745 30.064H136.497C136.497 29.088 136.201 28.304 135.609 27.712C135.017 27.12 134.225 26.824 133.233 26.824C132.481 26.824 131.833 26.992 131.289 27.328C130.761 27.648 130.353 28.128 130.065 28.768C129.793 29.392 129.657 30.144 129.657 31.024C129.657 32.432 129.977 33.52 130.617 34.288C131.257 35.04 132.177 35.416 133.377 35.416C134.257 35.416 134.977 35.24 135.537 34.888C136.097 34.536 136.473 34.024 136.665 33.352H138.777C138.489 34.6 137.873 35.568 136.929 36.256C135.985 36.944 134.785 37.288 133.329 37.288ZM140.313 33.592H142.473C142.473 34.184 142.689 34.656 143.121 35.008C143.553 35.344 144.137 35.512 144.873 35.512C145.673 35.512 146.289 35.36 146.721 35.056C147.153 34.736 147.369 34.312 147.369 33.784C147.369 33.4 147.249 33.08 147.009 32.824C146.785 32.568 146.369 32.36 145.761 32.2L143.697 31.72C142.657 31.464 141.881 31.072 141.369 30.544C140.873 30.016 140.625 29.32 140.625 28.456C140.625 27.736 140.809 27.112 141.177 26.584C141.561 26.056 142.081 25.648 142.737 25.36C143.409 25.072 144.177 24.928 145.041 24.928C145.905 24.928 146.649 25.08 147.273 25.384C147.913 25.688 148.409 26.112 148.761 26.656C149.129 27.2 149.321 27.848 149.337 28.6H147.177C147.161 27.992 146.961 27.52 146.577 27.184C146.193 26.848 145.657 26.68 144.969 26.68C144.265 26.68 143.721 26.832 143.337 27.136C142.953 27.44 142.761 27.856 142.761 28.384C142.761 29.168 143.337 29.704 144.489 29.992L146.553 30.496C147.545 30.72 148.289 31.088 148.785 31.6C149.281 32.096 149.529 32.776 149.529 33.64C149.529 34.376 149.329 35.024 148.929 35.584C148.529 36.128 147.977 36.552 147.273 36.856C146.585 37.144 145.769 37.288 144.825 37.288C143.449 37.288 142.353 36.952 141.537 36.28C140.721 35.608 140.313 34.712 140.313 33.592ZM152.03 37V25.264H154.286V37H152.03ZM153.134 22.48C152.734 22.48 152.382 22.336 152.078 22.048C151.79 21.744 151.646 21.392 151.646 20.992C151.646 20.576 151.79 20.224 152.078 19.936C152.382 19.648 152.734 19.504 153.134 19.504C153.55 19.504 153.902 19.648 154.19 19.936C154.478 20.224 154.622 20.576 154.622 20.992C154.622 21.392 154.478 21.744 154.19 22.048C153.902 22.336 153.55 22.48 153.134 22.48ZM156.818 30.832C156.818 29.728 157.042 28.736 157.49 27.856C157.938 26.96 158.578 26.248 159.41 25.72C160.242 25.192 161.226 24.928 162.362 24.928C163.418 24.928 164.322 25.184 165.074 25.696C165.826 26.192 166.362 26.888 166.682 27.784L166.394 28.096L166.634 25.264H168.65V36.52C168.65 37.752 168.41 38.816 167.93 39.712C167.45 40.624 166.77 41.328 165.89 41.824C165.01 42.32 163.97 42.568 162.77 42.568C161.17 42.568 159.858 42.144 158.834 41.296C157.81 40.448 157.186 39.28 156.962 37.792H159.218C159.362 38.656 159.746 39.328 160.37 39.808C160.994 40.288 161.794 40.528 162.77 40.528C163.874 40.528 164.754 40.192 165.41 39.52C166.082 38.864 166.418 37.976 166.418 36.856V33.544L166.706 33.856C166.402 34.736 165.85 35.432 165.05 35.944C164.25 36.44 163.322 36.688 162.266 36.688C161.146 36.688 160.178 36.432 159.362 35.92C158.546 35.392 157.914 34.688 157.466 33.808C157.034 32.928 156.818 31.936 156.818 30.832ZM159.074 30.784C159.074 31.52 159.218 32.184 159.506 32.776C159.81 33.368 160.226 33.84 160.754 34.192C161.298 34.544 161.93 34.72 162.65 34.72C163.418 34.72 164.074 34.552 164.618 34.216C165.162 33.88 165.578 33.416 165.866 32.824C166.17 32.232 166.322 31.552 166.322 30.784C166.322 30.016 166.178 29.344 165.89 28.768C165.602 28.192 165.186 27.736 164.642 27.4C164.098 27.064 163.442 26.896 162.674 26.896C161.922 26.896 161.274 27.072 160.73 27.424C160.202 27.776 159.794 28.248 159.506 28.84C159.218 29.416 159.074 30.064 159.074 30.784ZM174.161 37H171.905V25.264H173.945L174.185 27.064C174.553 26.392 175.081 25.872 175.769 25.504C176.473 25.12 177.241 24.928 178.073 24.928C179.609 24.928 180.745 25.368 181.481 26.248C182.217 27.128 182.585 28.32 182.585 29.824V37H180.329V30.328C180.329 29.144 180.073 28.296 179.561 27.784C179.049 27.256 178.361 26.992 177.497 26.992C176.441 26.992 175.617 27.336 175.025 28.024C174.449 28.712 174.161 29.632 174.161 30.784V37Z" fill="#222222"/>
</svg>
