<svg width="121" height="120" viewBox="0 0 121 120" fill="none" xmlns="http://www.w3.org/2000/svg">
<path d="M77.1307 15.4205C72.3242 12.8296 66.5349 12.276 61.0544 13.8446L20.6799 25.4007C9.23243 28.6772 2.20554 40.115 4.92816 50.9729L12.6374 81.7176C15.36 92.5755 26.8386 98.7166 38.2451 95.4518L78.6197 83.8957C90.0262 80.6309 97.0981 69.1803 94.3755 58.3223L86.6663 27.5777C85.3586 22.3628 81.9394 18.0025 77.1307 15.4205Z" fill="#108989"/>
<g opacity="0.2" filter="url(#filter0_f_229_7011)">
<path d="M65.6747 25.8205C62.6423 24.0815 59.0093 23.6685 55.586 24.6485L30.3671 31.8678C23.2168 33.9147 18.8994 41.3463 20.6886 48.4827L25.7547 68.6898C27.5439 75.8263 34.7855 79.9489 41.9103 77.9093L67.1292 70.69C74.254 68.6505 78.5995 61.2108 76.8103 54.0744L71.7441 33.8673C70.8848 30.4397 68.7084 27.5537 65.6747 25.8205Z" fill="#36A0A0"/>
</g>
<g filter="url(#filter1_b_229_7011)">
<mask id="path-3-outside-1_229_7011" maskUnits="userSpaceOnUse" x="26.1699" y="28.434" width="95" height="86" fill="black">
<rect fill="white" x="26.1699" y="28.434" width="95" height="86"/>
<path d="M112.777 36.2801C108.39 31.884 102.427 29.434 96.2276 29.434H50.5605C37.6125 29.434 27.1699 39.8811 27.1699 52.7783V89.2972C27.1699 102.194 37.6587 112.642 50.5605 112.642H96.2276C109.129 112.642 119.623 102.194 119.623 89.2972V52.7783C119.623 46.584 117.168 40.667 112.777 36.2801Z"/>
</mask>
<path d="M112.777 36.2801C108.39 31.884 102.427 29.434 96.2276 29.434H50.5605C37.6125 29.434 27.1699 39.8811 27.1699 52.7783V89.2972C27.1699 102.194 37.6587 112.642 50.5605 112.642H96.2276C109.129 112.642 119.623 102.194 119.623 89.2972V52.7783C119.623 46.584 117.168 40.667 112.777 36.2801Z" fill="#1FE3E4" fill-opacity="0.5"/>
<path d="M112.069 36.9865C112.459 37.3774 113.092 37.3781 113.483 36.9879C113.874 36.5978 113.875 35.9647 113.484 35.5737L112.069 36.9865ZM113.483 35.5726C113.093 35.1823 112.459 35.1826 112.069 35.5734C111.679 35.9641 111.679 36.5973 112.07 36.9876L113.483 35.5726ZM113.484 35.5737C108.908 30.988 102.69 28.434 96.2276 28.434V30.434C102.163 30.434 107.871 32.78 112.069 36.9865L113.484 35.5737ZM96.2276 28.434H50.5605V30.434H96.2276V28.434ZM50.5605 28.434C37.0613 28.434 26.1699 39.3277 26.1699 52.7783H28.1699C28.1699 40.4346 38.1636 30.434 50.5605 30.434V28.434ZM26.1699 52.7783V89.2972H28.1699V52.7783H26.1699ZM26.1699 89.2972C26.1699 102.749 37.1089 113.642 50.5605 113.642V111.642C38.2085 111.642 28.1699 101.64 28.1699 89.2972H26.1699ZM50.5605 113.642H96.2276V111.642H50.5605V113.642ZM96.2276 113.642C109.679 113.642 120.623 102.749 120.623 89.2972H118.623C118.623 101.639 108.58 111.642 96.2276 111.642V113.642ZM120.623 89.2972V52.7783H118.623V89.2972H120.623ZM120.623 52.7783C120.623 46.3181 118.062 40.1467 113.483 35.5726L112.07 36.9876C116.274 41.1872 118.623 46.8499 118.623 52.7783H120.623Z" fill="url(#paint0_linear_229_7011)" mask="url(#path-3-outside-1_229_7011)"/>
</g>
<g filter="url(#filter2_bd_229_7011)">
<mask id="path-5-inside-2_229_7011" fill="white">
<path d="M103.952 59.2958L103.583 59.6657L82.7298 76.3534C80.1457 78.3874 76.9515 79.4968 73.674 79.4968C70.3873 79.4968 67.2485 78.3874 64.6599 76.3534L43.6268 59.943L43.0213 59.3421C41.9627 57.9553 42.1014 55.9675 43.3495 54.7194C44.5468 53.4713 46.5345 53.3326 47.9721 54.3958L68.774 71.0374C71.4968 73.2608 75.3382 73.2608 78.0193 71.0374L98.8628 54.3958C99.5608 53.7487 100.485 53.4205 101.456 53.4713C102.376 53.5638 103.259 53.9844 103.901 54.6732C105.057 56.0138 105.057 57.9553 103.952 59.2958Z"/>
</mask>
<path d="M103.952 59.2958L103.583 59.6657L82.7298 76.3534C80.1457 78.3874 76.9515 79.4968 73.674 79.4968C70.3873 79.4968 67.2485 78.3874 64.6599 76.3534L43.6268 59.943L43.0213 59.3421C41.9627 57.9553 42.1014 55.9675 43.3495 54.7194C44.5468 53.4713 46.5345 53.3326 47.9721 54.3958L68.774 71.0374C71.4968 73.2608 75.3382 73.2608 78.0193 71.0374L98.8628 54.3958C99.5608 53.7487 100.485 53.4205 101.456 53.4713C102.376 53.5638 103.259 53.9844 103.901 54.6732C105.057 56.0138 105.057 57.9553 103.952 59.2958Z" fill="url(#paint1_linear_229_7011)"/>
<path d="M103.583 59.6657L103.707 59.8218L103.716 59.8149L103.724 59.8071L103.583 59.6657ZM82.7298 76.3534L82.8535 76.5106L82.8547 76.5096L82.7298 76.3534ZM64.6599 76.3534L64.7834 76.1961L64.7829 76.1957L64.6599 76.3534ZM43.6268 59.943L43.486 60.085L43.4944 60.0934L43.5038 60.1007L43.6268 59.943ZM43.0213 59.3421L42.8623 59.4634L42.8706 59.4744L42.8804 59.484L43.0213 59.3421ZM43.3495 54.7194L43.4909 54.8609L43.4938 54.8579L43.3495 54.7194ZM47.9721 54.3958L48.0972 54.2396L48.0911 54.235L47.9721 54.3958ZM68.774 71.0374L68.9005 70.8824L68.899 70.8812L68.774 71.0374ZM78.0193 71.0374L77.8945 70.881L77.8916 70.8834L78.0193 71.0374ZM98.8628 54.3958L98.9876 54.5521L98.9933 54.5475L98.9988 54.5425L98.8628 54.3958ZM101.456 53.4713L101.476 53.2721L101.467 53.2716L101.456 53.4713ZM103.901 54.6732L104.053 54.5425L104.048 54.5368L103.901 54.6732ZM103.811 59.1544L103.441 59.5242L103.724 59.8071L104.094 59.4373L103.811 59.1544ZM103.458 59.5095L82.6048 76.1972L82.8547 76.5096L103.707 59.8218L103.458 59.5095ZM82.6061 76.1962C80.0571 78.2026 76.9064 79.2968 73.674 79.2968V79.6968C76.9965 79.6968 80.2343 78.5721 82.8535 76.5106L82.6061 76.1962ZM73.674 79.2968C70.4332 79.2968 67.3377 78.203 64.7834 76.1961L64.5363 76.5107C67.1594 78.5717 70.3415 79.6968 73.674 79.6968V79.2968ZM64.7829 76.1957L43.7499 59.7853L43.5038 60.1007L64.5368 76.5111L64.7829 76.1957ZM43.7677 59.8011L43.1622 59.2001L42.8804 59.484L43.486 60.085L43.7677 59.8011ZM43.1803 59.2207C42.1833 57.9146 42.3127 56.0391 43.4909 54.8609L43.2081 54.578C41.8901 55.896 41.7421 57.9959 42.8623 59.4634L43.1803 59.2207ZM43.4938 54.8579C44.6178 53.6862 46.4922 53.5501 47.8532 54.5567L48.0911 54.235C46.5768 53.1152 44.4757 53.2565 43.2052 54.581L43.4938 54.8579ZM47.8472 54.552L68.6491 71.1935L68.899 70.8812L48.0971 54.2397L47.8472 54.552ZM68.6475 71.1923C71.4433 73.4754 75.3912 73.4767 78.147 71.1913L77.8916 70.8834C75.2851 73.045 71.5502 73.0463 68.9005 70.8825L68.6475 71.1923ZM78.1441 71.1937L98.9876 54.5521L98.738 54.2396L77.8945 70.8811L78.1441 71.1937ZM98.9988 54.5425C99.656 53.9332 100.527 53.6229 101.446 53.671L101.467 53.2716C100.443 53.218 99.4656 53.5642 98.7268 54.2492L98.9988 54.5425ZM101.436 53.6703C102.31 53.7581 103.147 54.1577 103.755 54.8096L104.048 54.5368C103.371 53.8112 102.442 53.3694 101.476 53.2723L101.436 53.6703ZM103.75 54.8038C104.841 56.0697 104.842 57.9023 103.798 59.1687L104.107 59.423C105.273 58.0082 105.273 55.9578 104.053 54.5426L103.75 54.8038Z" fill="url(#paint2_linear_229_7011)" fill-opacity="0.5" mask="url(#path-5-inside-2_229_7011)"/>
</g>
<defs>
<filter id="filter0_f_229_7011" x="4.28442" y="8.12854" width="88.9282" height="86.3024" filterUnits="userSpaceOnUse" color-interpolation-filters="sRGB">
<feFlood flood-opacity="0" result="BackgroundImageFix"/>
<feBlend mode="normal" in="SourceGraphic" in2="BackgroundImageFix" result="shape"/>
<feGaussianBlur stdDeviation="8" result="effect1_foregroundBlur_229_7011"/>
</filter>
<filter id="filter1_b_229_7011" x="11.1699" y="13.434" width="124.453" height="115.208" filterUnits="userSpaceOnUse" color-interpolation-filters="sRGB">
<feFlood flood-opacity="0" result="BackgroundImageFix"/>
<feGaussianBlur in="BackgroundImageFix" stdDeviation="7.5"/>
<feComposite in2="SourceAlpha" operator="in" result="effect1_backgroundBlur_229_7011"/>
<feBlend mode="normal" in="SourceGraphic" in2="effect1_backgroundBlur_229_7011" result="shape"/>
</filter>
<filter id="filter2_bd_229_7011" x="27.3115" y="38.4662" width="92.4631" height="56.0306" filterUnits="userSpaceOnUse" color-interpolation-filters="sRGB">
<feFlood flood-opacity="0" result="BackgroundImageFix"/>
<feGaussianBlur in="BackgroundImageFix" stdDeviation="7.5"/>
<feComposite in2="SourceAlpha" operator="in" result="effect1_backgroundBlur_229_7011"/>
<feColorMatrix in="SourceAlpha" type="matrix" values="0 0 0 0 0 0 0 0 0 0 0 0 0 0 0 0 0 0 127 0" result="hardAlpha"/>
<feOffset dx="5" dy="5"/>
<feGaussianBlur stdDeviation="5"/>
<feColorMatrix type="matrix" values="0 0 0 0 0.0862745 0 0 0 0 0.713726 0 0 0 0 0.713726 0 0 0 0.5 0"/>
<feBlend mode="normal" in2="effect1_backgroundBlur_229_7011" result="effect2_dropShadow_229_7011"/>
<feBlend mode="normal" in="SourceGraphic" in2="effect2_dropShadow_229_7011" result="shape"/>
</filter>
<linearGradient id="paint0_linear_229_7011" x1="41.8869" y1="39.1277" x2="93.5289" y2="110.194" gradientUnits="userSpaceOnUse">
<stop stop-color="white" stop-opacity="0.25"/>
<stop offset="1" stop-color="white" stop-opacity="0"/>
</linearGradient>
<linearGradient id="paint1_linear_229_7011" x1="100.346" y1="58.1668" x2="31.1178" y2="63.5831" gradientUnits="userSpaceOnUse">
<stop stop-color="white"/>
<stop offset="1" stop-color="white" stop-opacity="0.2"/>
</linearGradient>
<linearGradient id="paint2_linear_229_7011" x1="102.098" y1="67.0321" x2="41.8668" y2="73.0532" gradientUnits="userSpaceOnUse">
<stop stop-color="white"/>
<stop offset="1" stop-color="white" stop-opacity="0"/>
</linearGradient>
</defs>
</svg>
