<svg width="392" height="392" viewBox="0 0 392 392" fill="none" xmlns="http://www.w3.org/2000/svg">
<g filter="url(#filter0_b_119_3235)">
<path d="M251.808 185.12C249.389 181.348 245.952 177.576 241.496 175.187C237.932 173.427 235.64 170.535 233.603 167.14C227.111 156.327 230.93 142.119 241.751 135.706C254.481 128.539 258.555 112.571 251.171 100.123L242.642 85.2859C235.386 72.8381 219.473 68.4373 206.87 75.73C195.667 81.7653 181.282 77.7418 174.789 67.0542C172.752 63.5336 171.607 59.7616 171.861 55.9895C172.243 51.0858 170.716 46.4336 168.424 42.6615C163.714 34.8659 155.185 29.585 145.764 29.585H127.814C118.521 29.8364 109.992 34.8659 105.282 42.6615C102.863 46.4336 101.463 51.0858 101.717 55.9895C101.972 59.7616 100.826 63.5336 98.7893 67.0542C92.2969 77.7418 77.9116 81.7653 66.8362 75.73C54.1059 68.4373 38.3203 72.8381 30.9367 85.2859L22.4074 100.123C15.1511 112.571 19.2248 128.539 31.8278 135.706C42.6486 142.119 46.4677 156.327 40.1025 167.14C37.9384 170.535 35.6469 173.427 32.0824 175.187C27.7541 177.576 23.935 181.348 21.8982 185.12C17.188 192.916 17.4426 202.723 22.1528 210.896L30.9367 225.984C35.6469 234.031 44.4308 239.061 53.5967 239.061C57.925 239.061 63.0171 237.804 67.0908 235.289C70.2734 233.151 74.0925 232.397 78.2935 232.397C90.8965 232.397 101.463 242.833 101.717 255.281C101.717 269.74 113.429 281.057 128.196 281.057H145.51C160.149 281.057 171.861 269.74 171.861 255.281C172.243 242.833 182.809 232.397 195.412 232.397C199.486 232.397 203.305 233.151 206.615 235.289C210.689 237.804 215.654 239.061 220.109 239.061C229.148 239.061 237.932 234.031 242.642 225.984L251.553 210.896C256.136 202.472 256.518 192.916 251.808 185.12Z" fill="#108989"/>
</g>
<g opacity="0.5" filter="url(#filter1_f_119_3235)">
<path d="M196.921 171.367C195.673 169.425 193.901 167.484 191.604 166.254C189.766 165.348 188.584 163.859 187.534 162.112C184.186 156.546 186.155 149.233 191.735 145.933C198.299 142.244 200.4 134.025 196.592 127.618L192.194 119.981C188.453 113.574 180.248 111.309 173.749 115.063C167.973 118.169 160.556 116.098 157.208 110.597C156.158 108.785 155.567 106.844 155.698 104.902C155.895 102.378 155.107 99.9838 153.926 98.0423C151.497 94.0299 147.099 91.3118 142.242 91.3118H132.987C128.195 91.4412 123.797 94.0299 121.368 98.0423C120.121 99.9838 119.399 102.378 119.53 104.902C119.661 106.844 119.071 108.785 118.02 110.597C114.673 116.098 107.255 118.169 101.545 115.063C94.9805 111.309 86.8411 113.574 83.0339 119.981L78.636 127.618C74.8945 134.025 76.995 142.244 83.4934 145.933C89.0729 149.233 91.0421 156.546 87.7601 162.112C86.6442 163.859 85.4626 165.348 83.6247 166.254C81.3929 167.484 79.4237 169.425 78.3734 171.367C75.9447 175.379 76.076 180.427 78.5047 184.634L83.0339 192.4C85.4626 196.542 89.9918 199.13 94.718 199.13C96.9498 199.13 99.5754 198.483 101.676 197.189C103.317 196.089 105.286 195.7 107.452 195.7C113.951 195.7 119.399 201.072 119.53 207.479C119.53 214.921 125.569 220.746 133.183 220.746H142.111C149.659 220.746 155.698 214.921 155.698 207.479C155.895 201.072 161.343 195.7 167.842 195.7C169.942 195.7 171.911 196.089 173.618 197.189C175.719 198.483 178.279 199.13 180.576 199.13C185.237 199.13 189.766 196.542 192.194 192.4L196.789 184.634C199.152 180.298 199.349 175.379 196.921 171.367Z" fill="#36A0A0"/>
</g>
<g filter="url(#filter2_b_119_3235)">
<mask id="path-3-outside-1_119_3235" maskUnits="userSpaceOnUse" x="87.7539" y="61.8679" width="289" height="305" fill="black">
<rect fill="white" x="87.7539" y="61.8679" width="289" height="305"/>
<path d="M371.591 249.663C368.659 245.133 364.492 240.602 359.091 237.733C354.77 235.619 351.992 232.146 349.523 228.069C341.652 215.082 346.282 198.019 359.399 190.317C374.831 181.71 379.77 162.532 370.819 147.582L360.479 129.764C351.683 114.814 332.393 109.529 317.115 118.287C303.535 125.536 286.096 120.703 278.226 107.868C275.757 103.64 274.368 99.1094 274.676 94.5792C275.139 88.69 273.288 83.1028 270.51 78.5726C264.8 69.2102 254.46 62.8679 243.04 62.8679H221.281C210.016 63.1699 199.676 69.2102 193.966 78.5726C191.034 83.1028 189.336 88.69 189.645 94.5792C189.954 99.1094 188.565 103.64 186.096 107.868C178.225 120.703 160.787 125.536 147.361 118.287C131.929 109.529 112.793 114.814 103.842 129.764L93.5024 147.582C84.7061 162.532 89.6444 181.71 104.922 190.317C118.04 198.019 122.669 215.082 114.953 228.069C112.33 232.146 109.552 235.619 105.231 237.733C99.984 240.602 95.3543 245.133 92.8851 249.663C87.1752 259.025 87.4839 270.804 93.1938 280.619L103.842 298.74C109.552 308.404 120.2 314.444 131.311 314.444C136.558 314.444 142.731 312.934 147.669 309.914C151.527 307.347 156.157 306.441 161.25 306.441C176.528 306.441 189.336 318.975 189.645 333.924C189.645 351.29 203.843 364.881 221.744 364.881H242.732C260.479 364.881 274.676 351.29 274.676 333.924C275.139 318.975 287.948 306.441 303.226 306.441C308.164 306.441 312.794 307.347 316.806 309.914C321.745 312.934 327.763 314.444 333.164 314.444C344.121 314.444 354.77 308.404 360.479 298.74L371.282 280.619C376.838 270.502 377.301 259.025 371.591 249.663Z"/>
</mask>
<path d="M371.591 249.663C368.659 245.133 364.492 240.602 359.091 237.733C354.77 235.619 351.992 232.146 349.523 228.069C341.652 215.082 346.282 198.019 359.399 190.317C374.831 181.71 379.77 162.532 370.819 147.582L360.479 129.764C351.683 114.814 332.393 109.529 317.115 118.287C303.535 125.536 286.096 120.703 278.226 107.868C275.757 103.64 274.368 99.1094 274.676 94.5792C275.139 88.69 273.288 83.1028 270.51 78.5726C264.8 69.2102 254.46 62.8679 243.04 62.8679H221.281C210.016 63.1699 199.676 69.2102 193.966 78.5726C191.034 83.1028 189.336 88.69 189.645 94.5792C189.954 99.1094 188.565 103.64 186.096 107.868C178.225 120.703 160.787 125.536 147.361 118.287C131.929 109.529 112.793 114.814 103.842 129.764L93.5024 147.582C84.7061 162.532 89.6444 181.71 104.922 190.317C118.04 198.019 122.669 215.082 114.953 228.069C112.33 232.146 109.552 235.619 105.231 237.733C99.984 240.602 95.3543 245.133 92.8851 249.663C87.1752 259.025 87.4839 270.804 93.1938 280.619L103.842 298.74C109.552 308.404 120.2 314.444 131.311 314.444C136.558 314.444 142.731 312.934 147.669 309.914C151.527 307.347 156.157 306.441 161.25 306.441C176.528 306.441 189.336 318.975 189.645 333.924C189.645 351.29 203.843 364.881 221.744 364.881H242.732C260.479 364.881 274.676 351.29 274.676 333.924C275.139 318.975 287.948 306.441 303.226 306.441C308.164 306.441 312.794 307.347 316.806 309.914C321.745 312.934 327.763 314.444 333.164 314.444C344.121 314.444 354.77 308.404 360.479 298.74L371.282 280.619C376.838 270.502 377.301 259.025 371.591 249.663Z" fill="#1FE3E4" fill-opacity="0.5"/>
<path d="M370.751 250.206C371.051 250.67 371.67 250.802 372.134 250.502C372.598 250.202 372.73 249.583 372.43 249.119L370.751 250.206ZM359.091 237.733L359.56 236.85C359.55 236.845 359.54 236.84 359.53 236.835L359.091 237.733ZM349.523 228.069L350.378 227.551L350.378 227.551L349.523 228.069ZM359.399 190.317L358.912 189.444C358.906 189.447 358.899 189.451 358.893 189.455L359.399 190.317ZM370.819 147.582L369.954 148.084L369.961 148.096L370.819 147.582ZM360.479 129.764L361.344 129.262L361.341 129.257L360.479 129.764ZM317.115 118.287L317.586 119.169C317.595 119.165 317.604 119.16 317.612 119.155L317.115 118.287ZM278.226 107.868L277.362 108.372C277.366 108.378 277.37 108.384 277.373 108.391L278.226 107.868ZM274.676 94.5792L273.679 94.5009L273.679 94.5113L274.676 94.5792ZM270.51 78.5726L269.656 79.0933L269.657 79.0953L270.51 78.5726ZM221.281 62.8679V61.8679C221.272 61.8679 221.263 61.868 221.254 61.8683L221.281 62.8679ZM193.966 78.5726L194.806 79.1159C194.81 79.1084 194.815 79.1009 194.82 79.0933L193.966 78.5726ZM189.645 94.5792L188.646 94.6316C188.647 94.6368 188.647 94.642 188.647 94.6472L189.645 94.5792ZM186.096 107.868L186.948 108.391C186.952 108.384 186.956 108.378 186.959 108.372L186.096 107.868ZM147.361 118.287L146.867 119.157C146.873 119.16 146.88 119.164 146.886 119.167L147.361 118.287ZM103.842 129.764L102.984 129.25L102.977 129.262L103.842 129.764ZM93.5024 147.582L94.3643 148.09L94.3674 148.084L93.5024 147.582ZM104.922 190.317L105.429 189.455C105.423 189.452 105.418 189.449 105.413 189.446L104.922 190.317ZM114.953 228.069L115.794 228.61C115.801 228.6 115.807 228.59 115.813 228.58L114.953 228.069ZM105.231 237.733L104.791 236.835C104.778 236.842 104.764 236.849 104.751 236.856L105.231 237.733ZM92.8851 249.663L93.7389 250.183C93.7473 250.17 93.7554 250.156 93.7632 250.141L92.8851 249.663ZM93.1938 280.619L92.3294 281.122L92.3316 281.126L93.1938 280.619ZM103.842 298.74L102.98 299.246L102.981 299.248L103.842 298.74ZM147.669 309.914L148.191 310.767C148.202 310.761 148.213 310.754 148.223 310.747L147.669 309.914ZM189.645 333.924H190.645C190.645 333.917 190.645 333.91 190.645 333.904L189.645 333.924ZM274.676 333.924L273.677 333.893C273.677 333.904 273.676 333.914 273.676 333.924H274.676ZM316.806 309.914L316.267 310.757C316.273 310.76 316.279 310.764 316.285 310.767L316.806 309.914ZM360.479 298.74L359.621 298.228L359.618 298.231L360.479 298.74ZM371.282 280.619L372.141 281.131C372.147 281.121 372.153 281.111 372.159 281.1L371.282 280.619ZM372.444 249.142C372.157 248.671 371.541 248.521 371.07 248.809C370.598 249.097 370.449 249.712 370.737 250.183L372.444 249.142ZM372.43 249.119C369.435 244.492 365.153 239.821 359.56 236.85L358.621 238.616C363.831 241.383 367.882 245.773 370.751 250.206L372.43 249.119ZM359.53 236.835C355.464 234.845 352.809 231.566 350.378 227.551L348.667 228.587C351.174 232.726 354.076 236.393 358.651 238.631L359.53 236.835ZM350.378 227.551C342.807 215.059 347.251 198.609 359.906 191.18L358.893 189.455C345.313 197.428 340.497 215.106 348.667 228.587L350.378 227.551ZM359.886 191.191C375.816 182.306 380.915 162.498 371.677 147.069L369.961 148.096C378.625 162.566 373.847 181.114 358.912 189.444L359.886 191.191ZM371.684 147.081L361.344 129.262L359.615 130.266L369.954 148.084L371.684 147.081ZM361.341 129.257C352.269 113.838 332.374 108.387 316.618 117.42L317.612 119.155C332.411 110.671 351.097 115.79 359.618 130.271L361.341 129.257ZM316.644 117.405C303.529 124.405 286.671 119.728 279.078 107.345L277.373 108.391C285.521 121.678 303.54 126.666 317.586 119.169L316.644 117.405ZM279.089 107.364C276.691 103.257 275.383 98.9254 275.674 94.6472L273.679 94.5113C273.353 99.2935 274.822 104.022 277.362 108.372L279.089 107.364ZM275.673 94.6576C276.157 88.5102 274.223 82.7147 271.362 78.0498L269.657 79.0953C272.352 83.4908 274.122 88.8698 273.68 94.5009L275.673 94.6576ZM271.363 78.0519C265.485 68.4134 254.834 61.8679 243.04 61.8679V63.8679C254.087 63.8679 264.114 70.0069 269.656 79.0933L271.363 78.0519ZM243.04 61.8679H221.281V63.8679H243.04V61.8679ZM221.254 61.8683C209.652 62.1793 199 68.3983 193.112 78.0519L194.82 79.0933C200.352 70.0221 210.379 64.1605 221.308 63.8676L221.254 61.8683ZM193.127 78.0292C190.088 82.7234 188.326 88.5171 188.646 94.6316L190.644 94.5269C190.347 88.8629 191.98 83.4822 194.806 79.1159L193.127 78.0292ZM188.647 94.6472C188.939 98.9254 187.63 103.257 185.232 107.364L186.959 108.372C189.499 104.022 190.969 99.2935 190.643 94.5113L188.647 94.6472ZM185.243 107.345C177.648 119.732 160.791 124.401 147.836 117.407L146.886 119.167C160.783 126.67 178.802 121.675 186.948 108.391L185.243 107.345ZM147.854 117.418C131.944 108.388 112.21 113.84 102.984 129.25L104.7 130.277C113.375 115.788 131.914 110.67 146.867 119.157L147.854 117.418ZM102.977 129.262L92.6375 147.081L94.3674 148.084L104.707 130.266L102.977 129.262ZM92.6406 147.075C83.5649 162.5 88.6583 182.302 104.431 191.188L105.413 189.446C90.6305 181.118 85.8473 162.564 94.3643 148.09L92.6406 147.075ZM104.416 191.18C117.071 198.609 121.517 215.063 114.093 227.558L115.813 228.58C123.821 215.101 119.008 197.428 105.429 189.455L104.416 191.18ZM114.112 227.528C111.516 231.563 108.861 234.844 104.791 236.835L105.67 238.631C110.243 236.394 113.143 232.729 115.794 228.61L114.112 227.528ZM104.751 236.856C99.3561 239.806 94.5784 244.466 92.0071 249.184L93.7632 250.141C96.1302 245.799 100.612 241.399 105.711 238.611L104.751 236.856ZM92.0314 249.142C86.1107 258.85 86.4547 271.023 92.3294 281.122L94.0582 280.116C88.513 270.584 88.2397 259.2 93.7389 250.183L92.0314 249.142ZM92.3316 281.126L102.98 299.246L104.704 298.233L94.056 280.112L92.3316 281.126ZM102.981 299.248C108.871 309.218 119.847 315.444 131.311 315.444V313.444C120.554 313.444 110.233 307.591 104.703 298.231L102.981 299.248ZM131.311 315.444C136.725 315.444 143.081 313.892 148.191 310.767L147.148 309.061C142.381 311.976 136.392 313.444 131.311 313.444V315.444ZM148.223 310.747C151.857 308.329 156.267 307.441 161.25 307.441V305.441C156.048 305.441 151.198 306.365 147.115 309.082L148.223 310.747ZM161.25 307.441C175.991 307.441 188.348 319.547 188.645 333.945L190.645 333.904C190.325 318.402 177.064 305.441 161.25 305.441V307.441ZM188.645 333.924C188.645 351.878 203.327 365.881 221.744 365.881V363.881C204.358 363.881 190.645 350.702 190.645 333.924H188.645ZM221.744 365.881H242.732V363.881H221.744V365.881ZM242.732 365.881C260.998 365.881 275.676 351.875 275.676 333.924H273.676C273.676 350.705 259.96 363.881 242.732 363.881V365.881ZM275.676 333.955C276.122 319.547 288.486 307.441 303.226 307.441V305.441C287.41 305.441 274.157 318.402 273.677 333.893L275.676 333.955ZM303.226 307.441C308.046 307.441 312.468 308.326 316.267 310.757L317.345 309.072C313.12 306.368 308.282 305.441 303.226 305.441V307.441ZM316.285 310.767C321.392 313.891 327.594 315.444 333.164 315.444V313.444C327.932 313.444 322.097 311.978 317.328 309.061L316.285 310.767ZM333.164 315.444C344.477 315.444 355.452 309.215 361.34 299.248L359.618 298.231C354.087 307.593 343.765 313.444 333.164 313.444V315.444ZM361.338 299.252L372.141 281.131L370.423 280.107L359.621 298.228L361.338 299.252ZM372.159 281.1C377.855 270.726 378.372 258.862 372.444 249.142L370.737 250.183C376.229 259.188 375.82 270.277 370.405 280.138L372.159 281.1Z" fill="url(#paint0_linear_119_3235)" mask="url(#path-3-outside-1_119_3235)"/>
</g>
<g filter="url(#filter3_bd_119_3235)">
<path d="M232.43 255.432C208.201 255.432 188.603 236.556 188.603 212.848C188.603 189.14 208.201 170.113 232.43 170.113C256.659 170.113 275.794 189.14 275.794 212.848C275.794 236.556 256.659 255.432 232.43 255.432Z" fill="url(#paint1_linear_119_3235)"/>
<path d="M232.43 255.232C208.306 255.232 188.803 236.44 188.803 212.848C188.803 189.256 208.307 170.313 232.43 170.313C256.55 170.313 275.594 189.253 275.594 212.848C275.594 236.442 256.551 255.232 232.43 255.232Z" stroke="url(#paint2_linear_119_3235)" stroke-width="0.4"/>
</g>
<defs>
<filter id="filter0_b_119_3235" x="5.49023" y="16.585" width="262.68" height="277.472" filterUnits="userSpaceOnUse" color-interpolation-filters="sRGB">
<feFlood flood-opacity="0" result="BackgroundImageFix"/>
<feGaussianBlur in="BackgroundImageFix" stdDeviation="6.5"/>
<feComposite in2="SourceAlpha" operator="in" result="effect1_backgroundBlur_119_3235"/>
<feBlend mode="normal" in="SourceGraphic" in2="effect1_backgroundBlur_119_3235" result="shape"/>
</filter>
<filter id="filter1_f_119_3235" x="60.6162" y="75.3118" width="154.038" height="161.434" filterUnits="userSpaceOnUse" color-interpolation-filters="sRGB">
<feFlood flood-opacity="0" result="BackgroundImageFix"/>
<feBlend mode="normal" in="SourceGraphic" in2="BackgroundImageFix" result="shape"/>
<feGaussianBlur stdDeviation="8" result="effect1_foregroundBlur_119_3235"/>
</filter>
<filter id="filter2_b_119_3235" x="63.7539" y="37.8679" width="336.912" height="352.013" filterUnits="userSpaceOnUse" color-interpolation-filters="sRGB">
<feFlood flood-opacity="0" result="BackgroundImageFix"/>
<feGaussianBlur in="BackgroundImageFix" stdDeviation="12"/>
<feComposite in2="SourceAlpha" operator="in" result="effect1_backgroundBlur_119_3235"/>
<feBlend mode="normal" in="SourceGraphic" in2="effect1_backgroundBlur_119_3235" result="shape"/>
</filter>
<filter id="filter3_bd_119_3235" x="173.603" y="155.113" width="117.192" height="115.319" filterUnits="userSpaceOnUse" color-interpolation-filters="sRGB">
<feFlood flood-opacity="0" result="BackgroundImageFix"/>
<feGaussianBlur in="BackgroundImageFix" stdDeviation="7.5"/>
<feComposite in2="SourceAlpha" operator="in" result="effect1_backgroundBlur_119_3235"/>
<feColorMatrix in="SourceAlpha" type="matrix" values="0 0 0 0 0 0 0 0 0 0 0 0 0 0 0 0 0 0 127 0" result="hardAlpha"/>
<feOffset dx="5" dy="5"/>
<feGaussianBlur stdDeviation="5"/>
<feColorMatrix type="matrix" values="0 0 0 0 0.0862745 0 0 0 0 0.713726 0 0 0 0 0.713726 0 0 0 0.5 0"/>
<feBlend mode="normal" in2="effect1_backgroundBlur_119_3235" result="effect2_dropShadow_119_3235"/>
<feBlend mode="normal" in="SourceGraphic" in2="effect2_dropShadow_119_3235" result="shape"/>
</filter>
<linearGradient id="paint0_linear_119_3235" x1="134.426" y1="98.0528" x2="328.925" y2="326.9" gradientUnits="userSpaceOnUse">
<stop stop-color="white" stop-opacity="0.25"/>
<stop offset="1" stop-color="white" stop-opacity="0"/>
</linearGradient>
<linearGradient id="paint1_linear_119_3235" x1="269.613" y1="185.52" x2="172.494" y2="188.756" gradientUnits="userSpaceOnUse">
<stop stop-color="white"/>
<stop offset="1" stop-color="white" stop-opacity="0.2"/>
</linearGradient>
<linearGradient id="paint2_linear_119_3235" x1="202.482" y1="180.053" x2="256.646" y2="248.609" gradientUnits="userSpaceOnUse">
<stop stop-color="white" stop-opacity="0.25"/>
<stop offset="1" stop-color="white" stop-opacity="0"/>
</linearGradient>
</defs>
</svg>
