<svg width="24" height="20" viewBox="0 0 24 20" fill="none" xmlns="http://www.w3.org/2000/svg">
<path d="M17.6243 0.4375H6.37444C2.99948 0.4375 0.749512 2.12498 0.749512 6.06243V13.9373C0.749512 17.8748 2.99948 19.5623 6.37444 19.5623H17.6243C20.9993 19.5623 23.2492 17.8748 23.2492 13.9373V6.06243C23.2492 2.12498 20.9993 0.4375 17.6243 0.4375ZM18.153 7.28866L14.6318 10.1011C13.8893 10.6974 12.9444 10.9899 11.9994 10.9899C11.0544 10.9899 10.0981 10.6974 9.3669 10.1011L5.8457 7.28866C5.4857 6.99617 5.42945 6.45617 5.7107 6.09618C6.0032 5.73618 6.53194 5.66868 6.89193 5.96118L10.4131 8.77365C11.2681 9.45989 12.7194 9.45989 13.5744 8.77365L17.0956 5.96118C17.4556 5.66868 17.9955 5.72493 18.2768 6.09618C18.5693 6.45617 18.513 6.99617 18.153 7.28866Z" fill="#108989"/>
</svg>
