<svg width="24" height="22" viewBox="0 0 24 22" fill="none" xmlns="http://www.w3.org/2000/svg">
<path d="M6.00376 3.0872C6.00376 4.46834 4.75235 5.58797 3.20867 5.58797C1.66498 5.58797 0.413574 4.46834 0.413574 3.0872C0.413574 1.70606 1.66498 0.586426 3.20867 0.586426C4.75235 0.586426 6.00376 1.70606 6.00376 3.0872Z" fill="#108989"/>
<path d="M0.795809 7.42615H5.57374V21.2766H0.795809V7.42615Z" fill="#108989"/>
<path d="M13.2662 7.42615H8.48828V21.2766H13.2662C13.2662 21.2766 13.2662 16.9163 13.2662 14.19C13.2662 12.5536 13.8503 10.9101 16.1808 10.9101C18.8145 10.9101 18.7986 13.0516 18.7864 14.7106C18.7703 16.8791 18.8086 19.0921 18.8086 21.2766H23.5866V13.9666C23.5461 9.29902 22.2747 7.14829 18.0919 7.14829C15.6079 7.14829 14.0682 8.2271 13.2662 9.20313V7.42615Z" fill="#108989"/>
</svg>
