<svg width="22" height="22" viewBox="0 0 22 22" fill="none" xmlns="http://www.w3.org/2000/svg">
<path d="M11.0001 15.2003C8.75005 15.2003 6.80005 13.4003 6.80005 11.0003C6.80005 8.75029 8.60005 6.80029 11.0001 6.80029C13.2501 6.80029 15.2001 8.60029 15.2001 11.0003C15.2001 13.2503 13.2501 15.2003 11.0001 15.2003Z" fill="#108989"/>
<path fill-rule="evenodd" clip-rule="evenodd" d="M16.1 0.800293H5.90005C4.70005 0.950294 4.10005 1.10029 3.65005 1.25029C3.05005 1.40029 2.60005 1.70029 2.15005 2.15029C1.79397 2.50637 1.62573 2.86245 1.42238 3.29285C1.36878 3.40628 1.31261 3.52518 1.25005 3.65029C1.22684 3.71991 1.20005 3.79311 1.17133 3.87157C1.01441 4.30029 0.800049 4.88593 0.800049 5.90029V16.1003C0.950049 17.3003 1.10005 17.9003 1.25005 18.3503C1.40005 18.9503 1.70005 19.4003 2.15005 19.8503C2.50613 20.2064 2.86221 20.3746 3.29261 20.578C3.40613 20.6316 3.52483 20.6877 3.65005 20.7503C3.71967 20.7735 3.79287 20.8003 3.87133 20.829C4.30005 20.9859 4.88569 21.2003 5.90005 21.2003H16.1C17.3 21.0503 17.9001 20.9003 18.35 20.7503C18.95 20.6003 19.4 20.3003 19.85 19.8503C20.2061 19.4942 20.3744 19.1381 20.5777 18.7077C20.6313 18.5942 20.6875 18.4755 20.7501 18.3503C20.7733 18.2807 20.8 18.2075 20.8288 18.129C20.9857 17.7003 21.2 17.1147 21.2 16.1003V5.90029C21.05 4.70029 20.9001 4.10029 20.7501 3.65029C20.6 3.05029 20.3 2.60029 19.85 2.15029C19.494 1.79421 19.1379 1.62597 18.7075 1.42262C18.5941 1.36907 18.4751 1.3128 18.35 1.25029C18.2804 1.22709 18.2072 1.20029 18.1288 1.17158C17.7001 1.01465 17.1144 0.800293 16.1 0.800293ZM11.0001 4.55029C7.40005 4.55029 4.55005 7.40029 4.55005 11.0003C4.55005 14.6003 7.40005 17.4503 11.0001 17.4503C14.6 17.4503 17.45 14.6003 17.45 11.0003C17.45 7.40029 14.6 4.55029 11.0001 4.55029ZM19.1 4.40029C19.1 5.22872 18.4285 5.90029 17.6 5.90029C16.7716 5.90029 16.1 5.22872 16.1 4.40029C16.1 3.57187 16.7716 2.90029 17.6 2.90029C18.4285 2.90029 19.1 3.57187 19.1 4.40029Z" fill="#108989"/>
</svg>
