<svg width="18" height="14" viewBox="0 0 18 14" fill="none" xmlns="http://www.w3.org/2000/svg">
<path fill-rule="evenodd" clip-rule="evenodd" d="M2.92606 0.795461C1.69126 0.856636 0.699375 1.82349 0.619239 3.0572C0.542464 4.23919 0.466797 5.69359 0.466797 6.83475C0.466797 7.97592 0.542464 9.43031 0.619239 10.6123C0.699375 11.846 1.69126 12.8129 2.92606 12.874C4.71413 12.9626 7.26979 13.0695 9.1954 13.0695C11.121 13.0695 13.6767 12.9626 15.4647 12.874C16.6995 12.8129 17.6914 11.846 17.7716 10.6123C17.8483 9.43031 17.924 7.97592 17.924 6.83475C17.924 5.69359 17.8483 4.23919 17.7716 3.05721C17.6914 1.82349 16.6995 0.856636 15.4647 0.795461C13.6767 0.706876 11.121 0.600037 9.1954 0.600037C7.26979 0.600037 4.71413 0.706876 2.92606 0.795461ZM7.32535 9.32846V4.34068L12.3131 6.83457L7.32535 9.32846Z" fill="#108989"/>
</svg>
